{
  "accessors": [
    {
      "bufferView": 2,
      "componentType": 5126,
      "count": 65532,
      "max": [
        0.5,
        -0.012285999953746796,
        0.5
      ],
      "min": [
        -0.5,
        -0.1537500023841858,
        -0.5
      ],
      "type": "VEC3"
    },
    {
      "bufferView": 2,
      "byteOffset": 786384,
      "componentType": 5126,
      "count": 65532,
      "max": [
        0.9407186508178711,
        -0.19979341328144073,
        0.9635422229766846
      ],
      "min": [
        -0.9730949997901917,
        -0.9999968409538269,
        -0.9564797878265381
      ],
      "type": "VEC3"
    },
    {
      "bufferView": 3,
      "componentType": 5126,
      "count": 65532,
      "max": [
        1.0,
        0.9434957504272461,
        6.234861211851239e-05,
        1.0
      ],
      "min": [
        0.20112207531929016,
        -0.979566216468811,
        -5.758966653957032e-05,
        1.0
      ],
      "type": "VEC4"
    },
    {
      "bufferView": 1,
      "componentType": 5126,
      "count": 65532,
      "max": [
        1.0,
        1.0
      ],
      "min": [
        0.0,
        0.0
      ],
      "type": "VEC2"
    },
    {
      "bufferView": 0,
      "componentType": 5125,
      "count": 372498,
      "type": "SCALAR"
    },
    {
      "bufferView": 2,
      "byteOffset": 1572768,
      "componentType": 5126,
      "count": 65532,
      "max": [
        0.5,
        -0.010920999571681023,
        0.46121901273727417
      ],
      "min": [
        -0.49722999334335327,
        -0.18421000242233276,
        -0.5
      ],
      "type": "VEC3"
    },
    {
      "bufferView": 2,
      "byteOffset": 2359152,
      "componentType": 5126,
      "count": 65532,
      "max": [
        0.9545096755027771,
        -0.16229090094566345,
        0.9599758386611938
      ],
      "min": [
        -0.9761037230491638,
        -0.9999997615814209,
        -0.939825713634491
      ],
      "type": "VEC3"
    },
    {
      "bufferView": 3,
      "byteOffset": 1048512,
      "componentType": 5126,
      "count": 65532,
      "max": [
        1.0,
        0.9590840935707092,
        6.939610466361046e-05,
        1.0
      ],
      "min": [
        0.17742297053337097,
        -0.9841347932815552,
        -6.396693061105907e-05,
        1.0
      ],
      "type": "VEC4"
    },
    {
      "bufferView": 1,
      "byteOffset": 524256,
      "componentType": 5126,
      "count": 65532,
      "max": [
        1.0,
        0.9612190127372742
      ],
      "min": [
        0.0027699999045580626,
        0.0
      ],
      "type": "VEC2"
    },
    {
      "bufferView": 0,
      "byteOffset": 1489992,
      "componentType": 5125,
      "count": 364947,
      "type": "SCALAR"
    },
    {
      "bufferView": 2,
      "byteOffset": 3145536,
      "componentType": 5126,
      "count": 9878,
      "max": [
        0.4916900098323822,
        -0.015308000147342682,
        0.47783899307250977
      ],
      "min": [
        -0.5,
        -0.18421000242233276,
        0.01800600066781044
      ],
      "type": "VEC3"
    },
    {
      "bufferView": 2,
      "byteOffset": 3264072,
      "componentType": 5126,
      "count": 9878,
      "max": [
        0.9095418453216553,
        -0.28841981291770935,
        0.9383667707443237
      ],
      "min": [
        -0.9234126806259155,
        -0.9999896883964539,
        -0.9090074300765991
      ],
      "type": "VEC3"
    },
    {
      "bufferView": 3,
      "byteOffset": 2097024,
      "componentType": 5126,
      "count": 9878,
      "max": [
        1.0,
        0.9245826005935669,
        8.723380597075447e-05,
        1.0
      ],
      "min": [
        0.3347216546535492,
        -0.9423170685768127,
        -5.066325320512988e-05,
        1.0
      ],
      "type": "VEC4"
    },
    {
      "bufferView": 1,
      "byteOffset": 1048512,
      "componentType": 5126,
      "count": 9878,
      "max": [
        0.9916899800300598,
        0.9778389930725098
      ],
      "min": [
        0.0,
        0.5180060267448425
      ],
      "type": "VEC2"
    },
    {
      "bufferView": 0,
      "byteOffset": 2949780,
      "componentType": 5125,
      "count": 44481,
      "type": "SCALAR"
    }
  ],
  "asset": {
    "extras": {
      "author": "TheByteForge (https://sketchfab.com/TheByteForge)",
      "license": "CC-BY-4.0 (http://creativecommons.org/licenses/by/4.0/)",
      "source": "https://sketchfab.com/3d-models/world-machine-landscape-01-mountain-valley-6ddb2a04269e4826ae7fa95fdbdc0f6f",
      "title": "World Machine Landscape 01 - Mountain Valley"
    },
    "generator": "Sketchfab-12.68.0",
    "version": "2.0"
  },
  "bufferViews": [
    {
      "buffer": 0,
      "byteLength": 3127704,
      "name": "floatBufferViews",
      "target": 34963
    },
    {
      "buffer": 0,
      "byteLength": 1127536,
      "byteOffset": 3127704,
      "byteStride": 8,
      "name": "floatBufferViews",
      "target": 34962
    },
    {
      "buffer": 0,
      "byteLength": 3382608,
      "byteOffset": 4255240,
      "byteStride": 12,
      "name": "floatBufferViews",
      "target": 34962
    },
    {
      "buffer": 0,
      "byteLength": 2255072,
      "byteOffset": 7637848,
      "byteStride": 16,
      "name": "floatBufferViews",
      "target": 34962
    }
  ],
  "buffers": [
    {
      "byteLength": 9892920,
      "uri": "scene.bin"
    }
  ],
  "images": [
    {
      "uri": "textures/material_0_baseColor.png"
    },
    {
      "uri": "textures/material_0_normal.png"
    }
  ],
  "materials": [
    {
      "doubleSided": true,
      "name": "material_0",
      "normalTexture": {
        "index": 1,
        "scale": 0.3004954268292683
      },
      "pbrMetallicRoughness": {
        "baseColorTexture": {
          "index": 0
        },
        "metallicFactor": 0.0,
        "roughnessFactor": 0.6
      }
    }
  ],
  "meshes": [
    {
      "name": "Object_0",
      "primitives": [
        {
          "attributes": {
            "NORMAL": 1,
            "POSITION": 0,
            "TANGENT": 2,
            "TEXCOORD_0": 3
          },
          "indices": 4,
          "material": 0,
          "mode": 4
        }
      ]
    },
    {
      "name": "Object_1",
      "primitives": [
        {
          "attributes": {
            "NORMAL": 6,
            "POSITION": 5,
            "TANGENT": 7,
            "TEXCOORD_0": 8
          },
          "indices": 9,
          "material": 0,
          "mode": 4
        }
      ]
    },
    {
      "name": "Object_2",
      "primitives": [
        {
          "attributes": {
            "NORMAL": 11,
            "POSITION": 10,
            "TANGENT": 12,
            "TEXCOORD_0": 13
          },
          "indices": 14,
          "material": 0,
          "mode": 4
        }
      ]
    }
  ],
  "nodes": [
    {
      "children": [
        1
      ],
      "matrix": [
        2.220446049250313e-16,
        -1.1102230246251565e-16,
        1.0,
        0.0,
        -3.3306690738754696e-16,
        -1.0,
        0.0,
        0.0,
        1.0,
        -4.440892098500625e-16,
        -3.3306690738754706e-16,
        0.0,
        -3.2495810216480393e-17,
        -0.09818962961435321,
        0.09740586578845975,
        1.0
      ],
      "name": "Sketchfab_model"
    },
    {
      "children": [
        2,
        3,
        4
      ],
      "name": "MeshHeightField.obj.cleaner.materialmerger.gles"
    },
    {
      "mesh": 0,
      "name": "Object_2"
    },
    {
      "mesh": 1,
      "name": "Object_3"
    },
    {
      "mesh": 2,
      "name": "Object_4"
    }
  ],
  "samplers": [
    {
      "magFilter": 9729,
      "minFilter": 9987,
      "wrapS": 10497,
      "wrapT": 10497
    }
  ],
  "scene": 0,
  "scenes": [
    {
      "name": "Sketchfab_Scene",
      "nodes": [
        0
      ]
    }
  ],
  "textures": [
    {
      "sampler": 0,
      "source": 0
    },
    {
      "sampler": 0,
      "source": 1
    }
  ]
}
